

                Rychly Prachy (PRAHA - 02.05.2011) - Veronika



Screen:          http://image.bayimg.com/eahffaadp.jpg

Oficial website: http://rychlyprachy.cz/

Direct Link:     http://rychlyprachy.cz/video52.cz.html



General
Complete name                    : Rychly Prachy (PRAHA - 02.05.2011) - Veronika.wmv
Format                           : Windows Media
File size                        : 328 MiB
Duration                         : 22mn 15s
Overall bit rate mode            : Constant
Overall bit rate                 : 2 058 Kbps
Maximum Overall bit rate         : 2 068 Kbps
Encoded date                     : UTC 2011-05-03 19:15:40.327
SfOriginalFPS                    : 300000

Video
ID                               : 2
Format                           : VC-1
Format profile                   : MP@ML
Codec ID                         : WMV3
Codec ID/Info                    : Windows Media Video 9
Codec ID/Hint                    : WMV3
Description of the codec         : Windows Media Video 9 - Professional
Duration                         : 22mn 15s
Bit rate mode                    : Constant
Bit rate                         : 1 984 Kbps
Width                            : 640 pixels
Height                           : 480 pixels
Display aspect ratio             : 4:3
Frame rate                       : 30.000 fps
Bit depth                        : 8 bits
Scan type                        : Progressive
Compression mode                 : Lossy
Bits/(Pixel*Frame)               : 0.215
Stream size                      : 316 MiB (96%)
Language                         : Czech

Audio
ID                               : 1
Format                           : WMA
Format version                   : Version 2
Codec ID                         : 161
Codec ID/Info                    : Windows Media Audio
Description of the codec         : Windows Media Audio 9.2 -  64 kbps, 44 kHz, stereo (A/V) 1-pass CBR
Duration                         : 22mn 15s
Bit rate mode                    : Constant
Bit rate                         : 64.0 Kbps
Channel(s)                       : 2 channels
Sampling rate                    : 44.1 KHz
Bit depth                        : 16 bits
Stream size                      : 10.2 MiB (3%)
Language                         : Czech


